<svg width="35" height="35" viewBox="0 0 35 35" fill="none" xmlns="http://www.w3.org/2000/svg">
<path fill-rule="evenodd" clip-rule="evenodd" d="M16.3525 6.70924C14.0746 6.69948 11.886 7.59503 10.2684 9.19887C8.65075 10.8027 7.73649 12.9835 7.72673 15.2614L5.81807 15.2532C5.83 12.4691 6.94743 9.80372 8.92455 7.84347C10.9017 5.88321 13.5765 4.78865 16.3607 4.80058C19.1448 4.8125 21.8102 5.92994 23.7704 7.90706C25.7307 9.88417 26.8253 12.559 26.8133 15.3432L24.9047 15.335C24.9144 13.0571 24.0189 10.8685 22.415 9.2509C20.8112 7.63326 18.6304 6.71899 16.3525 6.70924Z" fill="#323334"/>
<path fill-rule="evenodd" clip-rule="evenodd" d="M4.12214 14.6486C4.21206 14.5375 4.32577 14.4481 4.45487 14.3869C4.58397 14.3257 4.72517 14.2942 4.86805 14.2949L27.772 14.393C27.9148 14.3936 28.0556 14.4263 28.1841 14.4887C28.3125 14.551 28.4254 14.6414 28.5143 14.7531C28.6032 14.8649 28.6659 14.9951 28.6978 15.1343C28.7296 15.2735 28.7299 15.4181 28.6984 15.5574L25.146 31.2259C25.0022 31.8613 24.6459 32.4286 24.1362 32.8341C23.6264 33.2397 22.9936 33.4593 22.3421 33.4566L10.1344 33.4044C9.48295 33.4014 8.85201 33.1764 8.34574 32.7665C7.83946 32.3566 7.4881 31.7863 7.34969 31.1497L3.93165 15.4513C3.90162 15.3121 3.90315 15.1679 3.93611 15.0293C3.96907 14.8907 4.03263 14.7613 4.12213 14.6505L4.12214 14.6486ZM6.04897 16.2086L9.21431 30.7435C9.26033 30.9558 9.37739 31.1461 9.54616 31.2828C9.71493 31.4196 9.92531 31.4947 10.1425 31.4957L22.3503 31.548C22.5675 31.5488 22.7786 31.4755 22.9485 31.3402C23.1184 31.2049 23.2371 31.0157 23.2849 30.8038L26.5728 16.2965L6.05088 16.2086L6.04897 16.2086Z" fill="#323334"/>
</svg>
