<svg width="35" height="35" viewBox="0 0 35 35" fill="none" xmlns="http://www.w3.org/2000/svg">
<g clip-path="url(#clip0_1_224)">
<path fill-rule="evenodd" clip-rule="evenodd" d="M16.4003 6.64893C14.1224 6.63918 11.9339 7.53473 10.3162 9.13857C8.69861 10.7424 7.78434 12.9232 7.77458 15.2011L5.86593 15.1929C5.87785 12.4088 6.99528 9.74342 8.9724 7.78317C10.9495 5.82291 13.6244 4.72835 16.4085 4.74028C19.1927 4.7522 21.858 5.86963 23.8183 7.84675C25.7785 9.82387 26.8731 12.4987 26.8612 15.2829L24.9525 15.2747C24.9623 12.9968 24.0667 10.8082 22.4629 9.1906C20.859 7.57296 18.6783 6.65869 16.4003 6.64893Z" fill="#323334"/>
<path fill-rule="evenodd" clip-rule="evenodd" d="M4.16999 14.5883C4.25991 14.4772 4.37362 14.3878 4.50272 14.3266C4.63182 14.2654 4.77302 14.2339 4.9159 14.2346L27.8198 14.3327C27.9626 14.3333 28.1034 14.366 28.2319 14.4284C28.3604 14.4907 28.4732 14.5811 28.5622 14.6928C28.6511 14.8046 28.7138 14.9348 28.7456 15.074C28.7775 15.2132 28.7777 15.3578 28.7463 15.4971L25.1939 31.1656C25.05 31.801 24.6938 32.3682 24.184 32.7738C23.6742 33.1794 23.0414 33.399 22.39 33.3963L10.1822 33.3441C9.5308 33.3411 8.89987 33.1161 8.39359 32.7062C7.88731 32.2963 7.53596 31.726 7.39754 31.0894L3.9795 15.391C3.94948 15.2518 3.951 15.1076 3.98396 14.969C4.01692 14.8304 4.08048 14.701 4.16999 14.5902L4.16999 14.5883ZM6.09682 16.1483L9.26217 30.6832C9.30818 30.8955 9.42524 31.0858 9.59401 31.2225C9.76278 31.3593 9.97316 31.4344 10.1904 31.4354L22.3982 31.4877C22.6154 31.4885 22.8264 31.4152 22.9963 31.2799C23.1663 31.1446 23.285 30.9554 23.3328 30.7435L26.6206 16.2362L6.09873 16.1483L6.09682 16.1483Z" fill="#323334"/>
<circle cx="24.3713" cy="27.076" r="7.3913" transform="rotate(0.245406 24.3713 27.076)" fill="#F2994A"/>
<path d="M23.6414 26.2845L24.3934 26.2878C24.7515 26.2893 25.0171 26.2009 25.1904 26.0226C25.3637 25.8443 25.451 25.6071 25.4523 25.3108C25.4535 25.0244 25.3682 24.801 25.1964 24.6408C25.0278 24.4806 24.7937 24.3998 24.4943 24.3985C24.2241 24.3974 23.9975 24.4713 23.8146 24.6202C23.6317 24.7659 23.5397 24.9576 23.5387 25.1952L22.1276 25.1892C22.1292 24.8181 22.2299 24.4865 22.4297 24.1944C22.6328 23.899 22.9137 23.6691 23.2725 23.5046C23.6345 23.3401 24.032 23.2588 24.465 23.2607C25.2169 23.2639 25.8053 23.4471 26.2302 23.8103C26.6551 24.1702 26.8662 24.6659 26.8635 25.2974C26.8621 25.6229 26.7615 25.9219 26.5618 26.1945C26.362 26.4671 26.1007 26.6759 25.7778 26.821C26.1776 26.966 26.4745 27.1821 26.6686 27.4694C26.866 27.7567 26.9638 28.0957 26.9621 28.4863C26.9594 29.1178 26.7261 29.623 26.2623 30.0019C25.8017 30.3807 25.1921 30.5686 24.4337 30.5653C23.724 30.5623 23.1438 30.3726 22.6929 29.9963C22.2453 29.6201 22.0228 29.1243 22.0255 28.5091L23.4366 28.5151C23.4354 28.7821 23.5338 29.0006 23.7316 29.1707C23.9327 29.3408 24.1798 29.4265 24.4727 29.4278C24.808 29.4292 25.0704 29.3424 25.26 29.1675C25.4528 28.9893 25.5498 28.7537 25.5511 28.4607C25.5541 27.7511 25.165 27.3946 24.3838 27.3912L23.6367 27.388L23.6414 26.2845Z" fill="white"/>
</g>
<defs>
<clipPath id="clip0_1_224">
<rect width="34" height="34" fill="white" transform="translate(0.833252 0.366211) rotate(0.245406)"/>
</clipPath>
</defs>
</svg>
