<svg width="31" height="29" viewBox="0 0 31 29" fill="none" xmlns="http://www.w3.org/2000/svg">
<path fill-rule="evenodd" clip-rule="evenodd" d="M15.4918 5.78501L14.1795 4.4245C11.0992 1.23092 5.42137 2.30411 3.35633 6.29373C2.38682 8.17024 2.15827 10.8845 3.89904 14.3573C5.57603 17.7012 9.07749 21.7128 15.4048 26.0932C21.7694 21.7672 25.3033 17.7857 27.0107 14.4563C28.7811 10.9967 28.5777 8.28242 27.6224 6.39767C25.5917 2.39051 19.9232 1.26688 16.8157 4.43396L15.4918 5.78501ZM15.3953 28.3084C-12.7122 9.56156 6.85855 -4.89249 15.1809 2.83308C15.2907 2.93467 15.3988 3.03992 15.5031 3.14883C15.6073 3.04091 15.7156 2.93712 15.828 2.83769C24.2144 -4.82182 43.6624 9.80118 15.3953 28.3084Z" fill="#323334"/>
</svg>
