<svg width="21" height="20" viewBox="0 0 21 20" fill="none" xmlns="http://www.w3.org/2000/svg">
<path d="M10.0524 7.41072C8.62397 7.4046 7.45327 8.56209 7.44717 9.98657C7.44107 11.411 8.60181 12.5785 10.0302 12.5846C11.4587 12.5908 12.6294 11.4333 12.6355 10.0088C12.6416 8.58431 11.4808 7.41684 10.0524 7.41072ZM17.8218 10.031C17.8264 8.95973 17.8407 7.89821 17.7849 6.82862C17.7299 5.58631 17.4505 4.48277 16.5436 3.57062C15.6348 2.65652 14.5326 2.37039 13.2873 2.3049C12.2133 2.24013 11.1488 2.24528 10.0765 2.24068C9.00225 2.23608 7.93777 2.22182 6.86522 2.27739C5.61945 2.33222 4.51286 2.61082 3.59819 3.51517C2.68158 4.42146 2.39468 5.52063 2.32903 6.76242C2.26411 7.83343 2.2693 8.89504 2.26472 9.96437C2.26014 11.0337 2.24585 12.0972 2.3016 13.1668C2.35661 14.4091 2.63602 15.5126 3.5429 16.4248C4.45172 17.3389 5.55395 17.625 6.7992 17.6905C7.87319 17.7552 8.93774 17.7501 10.01 17.7547C11.0843 17.7593 12.1488 17.7736 13.2213 17.718C14.4671 17.6632 15.5737 17.3845 16.4883 16.4802C17.405 15.5739 17.6919 14.4747 17.7575 13.233C17.8244 12.1639 17.8172 11.1023 17.8218 10.031ZM10.0243 13.9781C7.81545 13.9686 6.04044 12.1833 6.04988 9.98058C6.05931 7.77788 7.84955 6.00783 10.0584 6.01729C12.2672 6.02675 14.0422 7.81207 14.0328 10.0148C14.0233 12.2175 12.2331 13.9875 10.0243 13.9781ZM14.21 6.80166C13.6943 6.79946 13.2796 6.38236 13.2818 5.86807C13.284 5.35379 13.7023 4.94026 14.218 4.94247C14.7337 4.94468 15.1484 5.36177 15.1462 5.87606C15.1458 5.99818 15.1213 6.11903 15.074 6.23168C15.0267 6.34433 14.9576 6.44658 14.8707 6.53256C14.7837 6.61854 14.6806 6.68657 14.5672 6.73274C14.4539 6.77892 14.3325 6.80234 14.21 6.80166Z" fill="white"/>
</svg>
