<svg width="28" height="28" viewBox="0 0 28 28" fill="none" xmlns="http://www.w3.org/2000/svg">
<path fill-rule="evenodd" clip-rule="evenodd" d="M20.0685 18.335L27.3 25.6288C27.5542 25.8854 27.6961 26.2324 27.6944 26.5935C27.6927 26.9547 27.5476 27.3004 27.2911 27.5546C27.0346 27.8087 26.6876 27.9506 26.3264 27.9489C25.9653 27.9472 25.6196 27.8022 25.3654 27.5456L18.134 20.2517C15.9557 21.9241 13.2222 22.7037 10.4895 22.4321C7.75678 22.1605 5.2302 20.858 3.42371 18.7896C1.61723 16.7213 0.666538 14.0424 0.765043 11.2979C0.863547 8.55344 2.00385 5.94959 3.95397 4.01606C5.90409 2.08252 8.51755 0.964539 11.2627 0.889545C14.0078 0.814551 16.6784 1.78818 18.7312 3.61236C20.7839 5.43654 22.0647 7.97425 22.3129 10.7092C22.5611 13.4442 21.7581 16.171 20.0672 18.3349L20.0685 18.335ZM11.5239 19.7847C13.672 19.7939 15.7358 18.9493 17.2613 17.4369C18.7868 15.9244 19.6489 13.8678 19.6581 11.7196C19.6673 9.57144 18.8228 7.50758 17.3104 5.98208C15.7979 4.45658 13.7414 3.59439 11.5933 3.58519C9.44515 3.57599 7.38134 4.42053 5.85588 5.93302C4.33041 7.44551 3.46824 9.50206 3.45904 11.6502C3.44984 13.7984 4.29436 15.8623 5.80681 17.3878C7.31927 18.9133 9.37576 19.7755 11.5239 19.7847V19.7847Z" fill="#323334"/>
</svg>
